<svg id="Layer_1" data-name="Layer 1" xmlns="http://www.w3.org/2000/svg" viewBox="0 0 571.11 616.05"><defs><style>.cls-1{fill:#da0019;}.cls-1,.cls-2{stroke:#da0019;stroke-miterlimit:10;stroke-width:5.88px;}.cls-2{fill:none;}.cls-3{opacity:0.4;}.cls-4{fill:#e2e5e6;}.cls-5{font-size:33.95px;fill:#343d44;font-family:Nunito-Bold, Nunito;font-weight:700;}.cls-6{letter-spacing:-0.01em;}.cls-7{letter-spacing:0em;}.cls-8{letter-spacing:-0.02em;}.cls-9{letter-spacing:0em;}</style></defs><title>Game Models</title><path class="cls-1" d="M237.25,336.28H53.7a31.59,31.59,0,0,1,0-63.17H237.25S259.61,313.92,237.25,336.28Z"/><path class="cls-2" d="M514.28,304.69a31.6,31.6,0,0,1-31.59,31.59H237.25c22.36-22.36,0-63.17,0-63.17H482.69A31.59,31.59,0,0,1,514.28,304.69Z"/><g class="cls-3"><path class="cls-4" d="M64.16,298.33a7.5,7.5,0,0,1-2.74-8.88c1.73-4.33,5.44-9.27,13.25-7.53C82,283.54,87,291,90.1,297.32a6.45,6.45,0,0,1-7,9.13A49,49,0,0,1,64.16,298.33Z"/><path class="cls-4" d="M36.24,313a7.49,7.49,0,0,1-2.73-8.88c1.72-4.33,5.43-9.26,13.25-7.53,7.29,1.62,12.35,9.06,15.42,15.4a6.45,6.45,0,0,1-7,9.13A48.87,48.87,0,0,1,36.24,313Z"/><path class="cls-4" d="M99.82,300.58a7.51,7.51,0,0,1,4.35-8.22c4.28-1.83,10.39-2.7,14.69,4.05,4,6.31,2.33,15.14,0,21.8a6.45,6.45,0,0,1-11.43,1.49A49,49,0,0,1,99.82,300.58Z"/><path class="cls-4" d="M149.21,306.14a7.49,7.49,0,0,1,7.73-5.16c4.64.41,10.43,2.55,11,10.54.54,7.45-5.14,14.43-10.34,19.18a6.44,6.44,0,0,1-10.76-4.12A48.86,48.86,0,0,1,149.21,306.14Z"/><path class="cls-4" d="M171.49,292.51a7.51,7.51,0,0,1,3.8-8.48c4.15-2.11,10.2-3.38,14.93,3.08,4.41,6,3.32,14.95,1.44,21.74a6.44,6.44,0,0,1-11.3,2.24A48.86,48.86,0,0,1,171.49,292.51Z"/><path class="cls-4" d="M209.69,288.11a7.52,7.52,0,0,1,3.8-8.49c4.15-2.11,10.19-3.38,14.93,3.08,4.41,6,3.31,15,1.44,21.75a6.45,6.45,0,0,1-11.31,2.23A49,49,0,0,1,209.69,288.11Z"/><circle class="cls-4" cx="80.55" cy="318.65" r="4.41"/><circle class="cls-4" cx="137.85" cy="326" r="4.41"/><path class="cls-4" d="M132,302.49s-7.34-17.63,1.47-19.1,8.82,29.38,1.47,30.85"/><path class="cls-4" d="M191.92,320.41s5.89-18.17,13.54-13.55-12.42,28.05-19,24.39"/></g><text class="cls-5" transform="translate(84.41 376.21)">35% In<tspan class="cls-6" x="111.42" y="0">f</tspan><tspan x="123.41" y="0">e</tspan><tspan class="cls-7" x="141.44" y="0">c</tspan><tspan x="158.11" y="0">tion </tspan><tspan class="cls-8" x="227.84" y="0">P</tspan><tspan class="cls-9" x="249.64" y="0">o</tspan><tspan x="269.06" y="0">tential</tspan></text></svg>